# xmcd
#
# Track frame offsets: 
#        150
#        23480
#        43913
#        65150
#        89188
#        113265
#        133898
#        154880
#        178885
#        199125
#        210895
#        237890
#
# Disc length: 3443 seconds
#
# Revision: 4
# Processed by: cddbd v1.5.2PL0 Copyright (c) Steve Scherf et al.
# Submitted via: ExactAudioCopyFreeDBPlugin 1.0
#
DISCID=a90d710c
DTITLE=FreeTEMPO - Sounds
DYEAR=2007
DGENRE=House
TTITLE0=You And Me(feat. ogurusu norihide)
TTITLE1=Birds(feat. arvin homa aya)
TTITLE2=Flowers(feat. Kaori Natori)
TTITLE3=Sunshine(feat. bird)
TTITLE4=Rain
TTITLE5=Trees(feat. ogurusu norihide)
TTITLE6=Dreaming(feat. Nami Miyahara (agehasprings))
TTITLE7=Brazil(feat. KALEIDO)
TTITLE8=Stars(feat. Mari Mizuno (Paris Match))
TTITLE9=Moon
TTITLE10=Kindly(feat. Mari Mizuno (Paris Match), another side)
TTITLE11=Sounds
EXTD=YEAR: 2007
EXTT0=
EXTT1=
EXTT2=
EXTT3=
EXTT4=
EXTT5=
EXTT6=
EXTT7=
EXTT8=
EXTT9=
EXTT10=
EXTT11=
PLAYORDER=
